<?xml version="1.0"?>
<svg version="1.1" xmlns="http://www.w3.org/2000/svg" width="235px" height="80px" style=""><path fill="#" d="M68.29,36.838l-1.953,0l0,9.92l-13.082,0l0-9.92l-1.953,0l0,21.762l1.953,0l0-9.889l13.082,0l0,9.889l1.953,0l0-21.762z M73.30704,58.631l1.953,0l0-21.793l-1.953,0l0,21.793z M79.84308,50.54l9.021,0l0-1.953l-9.021,0l0,1.953z M95.43112,38.791l14.787,0l0-1.922l-16.709,0l0,0.372l0,21.359l1.922,0l0-9.672l7.843,0l0-2.015l-7.843,0l0-8.122z M113.93316,58.631l1.953,0l0-21.793l-1.953,0l0,21.793z M147.00024,36.9l-16.802,0l0,1.891l7.626,0l0,19.871l1.922,0l0-19.871l7.254,0l0-1.891z M152.69928,52.648q0-1.488,1.054-2.697q1.054-1.271,2.542-1.271l0.403,0l5.797,0l0-1.922l-5.797,0l-0.403,0q-1.581-0.31-2.5885-1.364t-1.0075-2.511q0-1.829,1.0695-2.8985t2.9295-1.0695l10.54,0l0-1.953l-10.54,0q-2.387,0-4.154,1.767q-1.767,1.705-1.767,4.154q0,1.55,0.589,2.821t1.736,1.829q-1.147,0.837-1.736,2.201t-0.589,2.914q0,2.418,1.767,4.123q1.798,1.798,4.154,1.798l10.54,0l0-2.046l-10.54,0q-1.86,0-2.9295-1.054t-1.0695-2.821z M187.29032,58.6l0-1.953l-5.518,0q-3.844,0-6.448-2.604t-2.604-6.448q0-3.534,2.604-6.076t6.448-2.542l5.518,0l0-2.015l-5.518,0q-4.681,0-7.843,3.1q-3.162,3.069-3.162,7.533q0,4.743,3.162,7.843q3.1,3.162,7.843,3.162l5.518,0z M208.52036,36.838l-1.953,0l0,9.92l-13.082,0l0-9.92l-1.953,0l0,21.762l1.953,0l0-9.889l13.082,0l0,9.889l1.953,0l0-21.762z"/><path fill="#" d=""/></svg>
